<?xml version="1.0" encoding="UTF-8"?>
<!DOCTYPE svg PUBLIC "-//W3C//DTD SVG 1.1//EN" "http://www.w3.org/Graphics/SVG/1.1/DTD/svg11.dtd">
<svg xmlns="http://www.w3.org/2000/svg" version="1.1" width="1200px" height="1300px" style="shape-rendering:geometricPrecision; text-rendering:geometricPrecision; image-rendering:optimizeQuality; fill-rule:evenodd; clip-rule:evenodd" xmlns:xlink="http://www.w3.org/1999/xlink">
<g><path style="opacity:0.966" fill="#dcdddc" d="M 204.5,49.5 C 294.796,43.0509 365.962,76.3842 418,149.5C 447.134,195.709 458.801,246.043 453,300.5C 688.225,534.392 923.559,768.392 1159,1002.5C 1195.39,1047.93 1202.39,1097.6 1180,1151.5C 1153.58,1201.56 1111.92,1227.9 1055,1230.5C 1016.25,1229.03 983.087,1214.87 955.5,1188C 722.887,956.721 490.221,725.388 257.5,494C 178.129,501.551 111.629,476.051 58,417.5C 7.11181,353.902 -7.38819,282.568 14.5,203.5C 15.552,203.351 16.552,203.517 17.5,204C 49.888,236.722 82.5547,269.055 115.5,301C 135.873,318.513 159.54,328.346 186.5,330.5C 200.563,330.423 213.229,326.257 224.5,318C 243.029,299.805 261.195,281.305 279,262.5C 287.522,246.761 289.856,230.094 286,212.5C 281.05,193.266 272.383,175.933 260,160.5C 226.049,126.722 192.882,92.7221 160.5,58.5C 175.157,54.8395 189.824,51.8395 204.5,49.5 Z M 422.5,365.5 C 455.154,362.777 484.154,371.61 509.5,392C 658.861,540.468 808.361,688.968 958,837.5C 989.377,877.143 994.044,919.81 972,965.5C 949.583,1002.56 916.583,1022.22 873,1024.5C 842.756,1023.76 816.589,1013.26 794.5,993C 646.054,845.221 497.554,697.388 349,549.5C 323.092,515.949 316.759,478.949 330,438.5C 347.5,397.157 378.333,372.823 422.5,365.5 Z M 1042.5,978.5 C 1091.91,978.8 1127.08,1001.13 1148,1045.5C 1165.66,1098.84 1152.16,1142.34 1107.5,1176C 1067.27,1199.61 1027.27,1199.28 987.5,1175C 944.941,1142.32 931.441,1100.15 947,1048.5C 965.188,1006.49 997.021,983.161 1042.5,978.5 Z"/></g>
<g><path style="opacity:0.984" fill="#dcdddc" d="M 1109.5,91.5 C 1112.55,92.1963 1115.22,93.6963 1117.5,96C 1142.59,121.086 1167.75,146.252 1193,171.5C 1193.67,172.5 1193.67,173.5 1193,174.5C 1129.42,263.991 1066.09,353.658 1003,443.5C 969.589,452.895 936.089,462.062 902.5,471C 863.5,510 824.5,549 785.5,588C 784.5,588.667 783.5,588.667 782.5,588C 752.32,557.986 722.32,527.82 692.5,497.5C 732.153,458.347 771.653,419.014 811,379.5C 819.867,347.897 828.534,316.23 837,284.5C 837.273,282.671 838.107,281.171 839.5,280C 929.741,217.391 1019.74,154.557 1109.5,91.5 Z"/></g>
<g><path style="opacity:0.988" fill="#dcdddc" d="M 429.5,383.5 C 460.437,382.978 487.77,392.478 511.5,412C 654.081,554.249 796.915,696.082 940,837.5C 971.258,873.21 978.258,913.21 961,957.5C 938.843,996.163 905.343,1013 860.5,1008C 834.434,1003.8 812.101,992.468 793.5,974C 652.306,833.473 511.14,692.973 370,552.5C 343.073,520.2 335.74,483.866 348,443.5C 363.465,407.527 390.631,387.527 429.5,383.5 Z"/></g>
<g><path style="opacity:0.972" fill="#dcdddc" d="M 397.5,670.5 C 413.748,685.245 429.581,700.579 445,716.5C 445.667,717.167 445.667,717.833 445,718.5C 334.586,828.248 224.252,937.915 114,1047.5C 107.633,1061.4 111.133,1072.24 124.5,1080C 131.672,1083.45 138.672,1083.12 145.5,1079C 255.987,969.013 366.654,859.18 477.5,749.5C 495.514,766.736 513.347,784.069 531,801.5C 531.667,802.167 531.667,802.833 531,803.5C 420.694,913.14 310.36,1022.81 200,1132.5C 193.311,1147.23 197.145,1158.4 211.5,1166C 217.976,1168.2 224.309,1167.87 230.5,1165C 341.194,1054.97 451.86,944.973 562.5,835C 563.167,834.333 563.833,834.333 564.5,835C 580.014,850.347 595.347,865.847 610.5,881.5C 492.013,999.82 373.347,1117.99 254.5,1236C 236.514,1248.87 216.514,1253.2 194.5,1249C 171.424,1245.13 150.091,1236.8 130.5,1224C 88.9364,1197.77 58.103,1162.27 38,1117.5C 29.256,1097.7 25.9227,1077.04 28,1055.5C 29.614,1044.28 33.9473,1034.28 41,1025.5C 160.034,907.299 278.868,788.966 397.5,670.5 Z"/></g>
</svg>
