<?xml version="1.0" encoding="UTF-8"?>
<!DOCTYPE svg PUBLIC "-//W3C//DTD SVG 1.1//EN" "http://www.w3.org/Graphics/SVG/1.1/DTD/svg11.dtd">
<svg xmlns="http://www.w3.org/2000/svg" version="1.1" width="600px" height="855px" style="shape-rendering:geometricPrecision; text-rendering:geometricPrecision; image-rendering:optimizeQuality; fill-rule:evenodd; clip-rule:evenodd" xmlns:xlink="http://www.w3.org/1999/xlink">
<g><path style="opacity:0.963" fill="#dddedd" d="M 294.5,31.5 C 297.788,31.073 300.788,31.7397 303.5,33.5C 312.99,53.1472 322.99,72.4805 333.5,91.5C 334.167,305.5 334.833,519.5 335.5,733.5C 345.654,741.748 356.654,748.748 368.5,754.5C 381.653,764.246 395.319,773.246 409.5,781.5C 410.499,795.484 410.833,809.484 410.5,823.5C 336.5,823.5 262.5,823.5 188.5,823.5C 188.5,808.833 188.5,794.167 188.5,779.5C 192.686,778.411 196.686,776.744 200.5,774.5C 215.968,763.708 231.968,753.708 248.5,744.5C 253.5,740.833 258.5,737.167 263.5,733.5C 264.167,518.833 264.833,304.167 265.5,89.5C 267.5,86.8333 269.5,84.1667 271.5,81.5C 278.833,66.8333 286.167,52.1667 293.5,37.5C 294.466,35.604 294.799,33.604 294.5,31.5 Z"/></g>
</svg>
