<?xml version="1.0" encoding="UTF-8"?>
<!DOCTYPE svg PUBLIC "-//W3C//DTD SVG 1.1//EN" "http://www.w3.org/Graphics/SVG/1.1/DTD/svg11.dtd">
<svg xmlns="http://www.w3.org/2000/svg" version="1.1" width="900px" height="920px" style="shape-rendering:geometricPrecision; text-rendering:geometricPrecision; image-rendering:optimizeQuality; fill-rule:evenodd; clip-rule:evenodd" xmlns:xlink="http://www.w3.org/1999/xlink">
<g><path style="opacity:0.931" fill="#dcdddc" d="M 378.5,18.5 C 425.835,18.3333 473.168,18.5 520.5,19C 568.877,22.2164 599.877,47.0497 613.5,93.5C 614.167,97.5 614.833,101.5 615.5,105.5C 616.5,178.83 616.833,252.164 616.5,325.5C 631.848,325.167 647.181,325.501 662.5,326.5C 666.833,328.167 669.833,331.167 671.5,335.5C 672.5,360.158 672.833,384.824 672.5,409.5C 717.172,409.167 761.838,409.5 806.5,410.5C 812.356,413.02 816.023,417.353 817.5,423.5C 818.833,447.5 818.833,471.5 817.5,495.5C 815.167,500.5 811.5,504.167 806.5,506.5C 761.838,507.5 717.172,507.833 672.5,507.5C 672.833,532.176 672.5,556.842 671.5,581.5C 669.833,585.833 666.833,588.833 662.5,590.5C 647.181,591.499 631.848,591.833 616.5,591.5C 616.833,665.503 616.5,739.503 615.5,813.5C 608.31,854.019 585.31,881.019 546.5,894.5C 539.921,896.263 533.254,897.597 526.5,898.5C 474.5,899.833 422.5,899.833 370.5,898.5C 322.803,891.466 293.803,864.466 283.5,817.5C 282.5,742.17 282.167,666.836 282.5,591.5C 266.486,591.833 250.486,591.499 234.5,590.5C 232.167,588.167 229.833,585.833 227.5,583.5C 226.5,558.175 226.167,532.842 226.5,507.5C 181.162,507.833 135.828,507.5 90.5,506.5C 86.1667,504.833 83.1667,501.833 81.5,497.5C 80.1667,472.167 80.1667,446.833 81.5,421.5C 83.8333,416.5 87.5,412.833 92.5,410.5C 137.162,409.5 181.828,409.167 226.5,409.5C 226.167,384.158 226.5,358.825 227.5,333.5C 229.928,330.402 232.928,328.069 236.5,326.5C 251.819,325.501 267.152,325.167 282.5,325.5C 282.167,250.164 282.5,174.83 283.5,99.5C 291.438,63.5592 312.438,38.5592 346.5,24.5C 357.075,21.1873 367.742,19.1873 378.5,18.5 Z M 390.5,57.5 C 400.5,57.5 410.5,57.5 420.5,57.5C 419.857,73.6215 420.857,89.6215 423.5,105.5C 426.354,114.744 430.354,123.411 435.5,131.5C 442.008,145.533 442.008,159.533 435.5,173.5C 420.51,199.88 416.51,227.88 423.5,257.5C 426.398,267.298 430.398,276.631 435.5,285.5C 441.135,297.24 441.802,309.24 437.5,321.5C 431.768,331.637 427.101,342.304 423.5,353.5C 419.5,372.833 419.5,392.167 423.5,411.5C 426.354,420.744 430.354,429.411 435.5,437.5C 442.008,451.533 442.008,465.533 435.5,479.5C 420.633,505.907 416.633,533.907 423.5,563.5C 426.398,573.298 430.398,582.631 435.5,591.5C 441.135,603.24 441.802,615.24 437.5,627.5C 430.613,640.151 425.28,653.484 421.5,667.5C 419.38,686.448 420.713,705.114 425.5,723.5C 430.047,731.927 434.047,740.594 437.5,749.5C 441.802,761.76 441.135,773.76 435.5,785.5C 421.947,808.386 416.947,833.053 420.5,859.5C 410.478,859.832 400.478,859.499 390.5,858.5C 389.248,856.999 388.248,855.332 387.5,853.5C 386.167,844.833 386.167,836.167 387.5,827.5C 390.953,818.594 394.953,809.927 399.5,801.5C 403.416,789.505 405.083,777.172 404.5,764.5C 404.167,756.833 403.833,749.167 403.5,741.5C 402.833,738.833 402.167,736.167 401.5,733.5C 396.833,722.833 392.167,712.167 387.5,701.5C 386.167,692.833 386.167,684.167 387.5,675.5C 390.285,667.929 393.619,660.595 397.5,653.5C 403.202,640.072 405.536,626.072 404.5,611.5C 405.796,592.683 401.462,575.35 391.5,559.5C 386.764,546.543 385.431,533.21 387.5,519.5C 392.713,509.741 397.38,499.741 401.5,489.5C 404.525,471.606 405.192,453.606 403.5,435.5C 401.856,430.923 400.522,426.256 399.5,421.5C 394.953,413.073 390.953,404.406 387.5,395.5C 386.167,386.833 386.167,378.167 387.5,369.5C 390.285,361.929 393.619,354.595 397.5,347.5C 403.202,334.072 405.536,320.072 404.5,305.5C 405.063,293.159 403.396,281.159 399.5,269.5C 396.014,260.532 392.014,251.866 387.5,243.5C 385.921,232.027 386.588,220.693 389.5,209.5C 396.415,198.342 401.082,186.342 403.5,173.5C 404.833,158.833 404.833,144.167 403.5,129.5C 401.5,123.5 399.5,117.5 397.5,111.5C 393.619,104.405 390.285,97.0713 387.5,89.5C 386.167,80.8333 386.167,72.1667 387.5,63.5C 388.527,61.4469 389.527,59.4469 390.5,57.5 Z M 460.5,57.5 C 471.833,57.5 483.167,57.5 494.5,57.5C 489.617,85.3175 494.617,111.317 509.5,135.5C 515.099,153.529 512.433,170.196 501.5,185.5C 487.872,219.156 489.872,251.822 507.5,283.5C 512.071,294.444 513.404,305.777 511.5,317.5C 505.615,329.936 500.282,342.603 495.5,355.5C 488.703,386.05 493.369,414.717 509.5,441.5C 513.373,452.863 513.373,464.197 509.5,475.5C 489.285,510.489 487.285,546.489 503.5,583.5C 513.687,599.386 515.021,616.053 507.5,633.5C 491.624,661.35 488.29,690.683 497.5,721.5C 500.953,730.406 504.953,739.073 509.5,747.5C 513.373,758.863 513.373,770.197 509.5,781.5C 503.733,791.698 499.067,802.365 495.5,813.5C 493.643,823.074 492.643,832.741 492.5,842.5C 492.544,848.673 493.211,854.673 494.5,860.5C 483.186,861.499 471.853,861.832 460.5,861.5C 459.614,854.876 458.948,848.209 458.5,841.5C 458.833,837.5 459.167,833.5 459.5,829.5C 464.167,818.833 468.833,808.167 473.5,797.5C 474.167,794.833 474.833,792.167 475.5,789.5C 476.833,772.833 476.833,756.167 475.5,739.5C 473.5,733.5 471.5,727.5 469.5,721.5C 466.764,716.127 464.098,710.794 461.5,705.5C 457.5,694.167 457.5,682.833 461.5,671.5C 466.719,660.395 471.386,649.062 475.5,637.5C 476.833,620.833 476.833,604.167 475.5,587.5C 474.478,582.744 473.144,578.077 471.5,573.5C 466.953,565.073 462.953,556.406 459.5,547.5C 458.167,539.5 458.167,531.5 459.5,523.5C 464.167,512.833 468.833,502.167 473.5,491.5C 474.167,488.833 474.833,486.167 475.5,483.5C 476.833,466.833 476.833,450.167 475.5,433.5C 473.5,427.5 471.5,421.5 469.5,415.5C 458.59,400.168 455.923,383.501 461.5,365.5C 466.93,354.557 471.597,343.224 475.5,331.5C 476.833,314.833 476.833,298.167 475.5,281.5C 474.478,276.744 473.144,272.077 471.5,267.5C 466.953,259.073 462.953,250.406 459.5,241.5C 458.167,233.5 458.167,225.5 459.5,217.5C 464.167,206.833 468.833,196.167 473.5,185.5C 474.167,182.833 474.833,180.167 475.5,177.5C 476.833,160.833 476.833,144.167 475.5,127.5C 472.928,121.689 470.928,115.689 469.5,109.5C 458.804,93.5814 455.804,76.248 460.5,57.5 Z M 532.5,61.5 C 537.533,62.0105 542.199,63.6772 546.5,66.5C 563.031,77.2276 573.364,92.2276 577.5,111.5C 578.833,342.833 578.833,574.167 577.5,805.5C 572.792,827.548 560.458,843.881 540.5,854.5C 537.914,855.48 535.247,855.813 532.5,855.5C 530.446,847.608 530.113,839.608 531.5,831.5C 536.833,818.167 542.167,804.833 547.5,791.5C 554.714,760.904 550.048,732.237 533.5,705.5C 529.5,694.167 529.5,682.833 533.5,671.5C 556.163,631.461 556.163,591.461 533.5,551.5C 529.158,538.576 529.824,525.91 535.5,513.5C 555.5,476.833 555.5,440.167 535.5,403.5C 529.824,391.09 529.158,378.424 533.5,365.5C 550.976,335.904 554.976,304.571 545.5,271.5C 543.221,264.276 539.888,257.609 535.5,251.5C 532.886,244.379 531.22,237.046 530.5,229.5C 531.837,215.822 536.171,203.155 543.5,191.5C 555.292,157.287 551.958,124.621 533.5,93.5C 529.988,82.9062 529.654,72.2395 532.5,61.5 Z M 346.5,69.5 C 348.152,79.1329 349.152,89.1329 349.5,99.5C 351.5,105.5 353.5,111.5 355.5,117.5C 370.156,140.909 370.156,164.242 355.5,187.5C 349.798,200.928 347.464,214.928 348.5,229.5C 347.937,241.841 349.604,253.841 353.5,265.5C 358.014,273.866 362.014,282.532 365.5,291.5C 366.833,300.833 366.833,310.167 365.5,319.5C 360.833,330.167 356.167,340.833 351.5,351.5C 348.489,368.726 347.823,386.059 349.5,403.5C 351.095,410.286 353.095,416.953 355.5,423.5C 370.167,446.833 370.167,470.167 355.5,493.5C 353.095,500.047 351.095,506.714 349.5,513.5C 348.167,528.167 348.167,542.833 349.5,557.5C 350.522,562.256 351.856,566.923 353.5,571.5C 358.047,579.927 362.047,588.594 365.5,597.5C 366.833,606.833 366.833,616.167 365.5,625.5C 362.047,634.406 358.047,643.073 353.5,651.5C 351.856,656.077 350.522,660.744 349.5,665.5C 348.167,680.833 348.167,696.167 349.5,711.5C 351.5,717.5 353.5,723.5 355.5,729.5C 370.167,752.833 370.167,776.167 355.5,799.5C 349.821,814.968 347.154,830.968 347.5,847.5C 341.5,841.5 335.5,835.5 329.5,829.5C 326.05,823.152 323.384,816.485 321.5,809.5C 320.167,575.5 320.167,341.5 321.5,107.5C 324.285,99.9287 327.619,92.5954 331.5,85.5C 336.91,80.4275 341.91,75.0942 346.5,69.5 Z M 264.5,363.5 C 270.5,363.5 276.5,363.5 282.5,363.5C 282.5,426.833 282.5,490.167 282.5,553.5C 276.5,553.5 270.5,553.5 264.5,553.5C 264.5,490.167 264.5,426.833 264.5,363.5 Z M 616.5,363.5 C 622.5,363.5 628.5,363.5 634.5,363.5C 634.5,426.833 634.5,490.167 634.5,553.5C 628.5,553.5 622.5,553.5 616.5,553.5C 616.5,490.167 616.5,426.833 616.5,363.5 Z M 118.5,447.5 C 154.5,447.5 190.5,447.5 226.5,447.5C 226.5,454.833 226.5,462.167 226.5,469.5C 190.5,469.5 154.5,469.5 118.5,469.5C 118.5,462.167 118.5,454.833 118.5,447.5 Z M 672.5,447.5 C 708.5,447.5 744.5,447.5 780.5,447.5C 780.5,454.833 780.5,462.167 780.5,469.5C 744.5,469.5 708.5,469.5 672.5,469.5C 672.5,462.167 672.5,454.833 672.5,447.5 Z"/></g>
<g><path style="opacity:0.921" fill="#dcdddc" d="M -0.5,233.5 C -0.5,204.833 -0.5,176.167 -0.5,147.5C 1.78529,145.215 4.11863,142.881 6.5,140.5C 41.1603,139.5 75.8269,139.167 110.5,139.5C 110.168,130.143 110.502,120.81 111.5,111.5C 118.292,104.095 126.625,101.761 136.5,104.5C 177.493,127.328 218.159,150.661 258.5,174.5C 263.207,178.766 265.207,184.099 264.5,190.5C 265.207,196.901 263.207,202.234 258.5,206.5C 218.159,230.339 177.493,253.672 136.5,276.5C 126.625,279.239 118.292,276.905 111.5,269.5C 110.502,260.19 110.168,250.857 110.5,241.5C 75.8269,241.833 41.1603,241.5 6.5,240.5C 4.11863,238.119 1.78529,235.785 -0.5,233.5 Z M 146.5,157.5 C 149.343,157.917 152.01,158.917 154.5,160.5C 171.167,170.5 187.833,180.5 204.5,190.5C 185.707,202.56 166.374,213.56 146.5,223.5C 148.584,214.234 145.25,207.901 136.5,204.5C 103.173,203.5 69.84,203.167 36.5,203.5C 36.5,194.833 36.5,186.167 36.5,177.5C 69.84,177.833 103.173,177.5 136.5,176.5C 145.25,173.099 148.584,166.766 146.5,157.5 Z"/></g>
<g><path style="opacity:0.921" fill="#dcdddc" d="M 899.5,687.5 C 899.5,714.167 899.5,740.833 899.5,767.5C 897.246,772.421 893.579,776.088 888.5,778.5C 855.173,779.5 821.84,779.833 788.5,779.5C 788.831,787.528 788.498,795.528 787.5,803.5C 785.833,807.833 782.833,810.833 778.5,812.5C 772.5,813.833 766.5,813.833 760.5,812.5C 719.507,789.672 678.841,766.339 638.5,742.5C 637.5,741.5 636.5,740.5 635.5,739.5C 634.167,731.5 634.167,723.5 635.5,715.5C 637.167,713.833 638.833,712.167 640.5,710.5C 679.507,687.328 718.84,664.661 758.5,642.5C 765.833,641.167 773.167,641.167 780.5,642.5C 783.598,644.928 785.931,647.928 787.5,651.5C 788.498,659.472 788.831,667.472 788.5,675.5C 822.507,675.167 856.507,675.5 890.5,676.5C 892.332,677.248 893.999,678.248 895.5,679.5C 896.882,682.264 898.215,684.93 899.5,687.5 Z M 748.5,693.5 C 750.029,697.979 751.695,702.646 753.5,707.5C 755.305,709.903 757.638,711.57 760.5,712.5C 794.493,713.5 828.493,713.833 862.5,713.5C 862.5,722.833 862.5,732.167 862.5,741.5C 827.827,741.167 793.16,741.5 758.5,742.5C 756.167,744.833 753.833,747.167 751.5,749.5C 750.513,752.768 750.18,756.102 750.5,759.5C 749.022,759.762 747.689,759.429 746.5,758.5C 731.833,749.833 717.167,741.167 702.5,732.5C 700.01,730.917 697.343,729.917 694.5,729.5C 694.328,727.508 694.995,725.842 696.5,724.5C 713.49,715.674 730.157,706.34 746.5,696.5C 747.612,695.735 748.279,694.735 748.5,693.5 Z"/></g>
</svg>
